<svg width="21" height="21" viewBox="0 0 21 21" fill="none" xmlns="http://www.w3.org/2000/svg">
<g clip-path="url(#clip0_1371_16308)">
<g clip-path="url(#clip1_1371_16308)">
<path d="M19 13.5163C18.8674 13.5163 18.7402 13.4636 18.6464 13.3698C18.5527 13.2761 18.5 13.1489 18.5 13.0163V9.48828C18.5 4.40428 15.584 1.48828 10.5 1.48828C5.416 1.48828 2.5 4.40428 2.5 9.48828V13.0163C2.5 13.1489 2.44732 13.2761 2.35355 13.3698C2.25979 13.4636 2.13261 13.5163 2 13.5163C1.86739 13.5163 1.74021 13.4636 1.64645 13.3698C1.55268 13.2761 1.5 13.1489 1.5 13.0163V9.48828C1.5 7.97428 1.737 6.61428 2.204 5.44328C2.62537 4.36111 3.29421 3.39261 4.157 2.61528C5.714 1.22328 7.907 0.488281 10.501 0.488281C13.095 0.488281 15.288 1.22428 16.845 2.61528C17.7072 3.3931 18.376 4.36146 18.798 5.44328C19.265 6.61328 19.502 7.97428 19.502 9.48828V13.0163C19.502 13.1489 19.4493 13.2761 19.3556 13.3698C19.2618 13.4636 19.1346 13.5163 19.002 13.5163H19Z" fill="white"/>
<path d="M7 8.48828C6.68758 8.48844 6.38301 8.58613 6.1288 8.76774C5.87459 8.94934 5.68343 9.20579 5.582 9.50128C4.479 9.56928 3.688 9.91528 3.173 10.5533C2.714 11.1233 2.5 11.8973 2.5 12.9883C2.5 14.0793 2.714 14.8533 3.173 15.4233C3.688 16.0623 4.478 16.4073 5.582 16.4753C5.68343 16.7708 5.87459 17.0272 6.1288 17.2088C6.38301 17.3904 6.68758 17.4881 7 17.4883C7.827 17.4883 8.5 16.8153 8.5 15.9883V9.98828C8.5 9.16128 7.827 8.48828 7 8.48828ZM3.5 12.9883C3.5 11.5773 3.85 10.6573 5.5 10.5093V15.4673C3.85 15.3193 3.5 14.3993 3.5 12.9883ZM7.5 15.9883C7.5 16.1209 7.44732 16.2481 7.35355 16.3418C7.25979 16.4356 7.13261 16.4883 7 16.4883C6.86739 16.4883 6.74021 16.4356 6.64645 16.3418C6.55268 16.2481 6.5 16.1209 6.5 15.9883V9.98828C6.5 9.85567 6.55268 9.7285 6.64645 9.63473C6.74021 9.54096 6.86739 9.48828 7 9.48828C7.13261 9.48828 7.25979 9.54096 7.35355 9.63473C7.44732 9.7285 7.5 9.85567 7.5 9.98828V15.9883ZM17.827 10.5533C17.312 9.91428 16.522 9.56928 15.419 9.50128C15.3176 9.20579 15.1264 8.94934 14.8722 8.76774C14.618 8.58613 14.3134 8.48844 14.001 8.48828C13.174 8.48828 12.501 9.16128 12.501 9.98828V15.9883C12.5015 16.3429 12.6277 16.6859 12.8571 16.9564C13.0865 17.2268 13.4043 17.4073 13.7541 17.4657C14.1039 17.524 14.4631 17.4566 14.7679 17.2753C15.0727 17.094 15.3033 16.8105 15.419 16.4753C16.311 16.4203 16.998 16.1833 17.501 15.7573V16.9873C17.501 17.8143 16.828 18.4873 16.001 18.4873H12.415C12.209 17.9053 11.653 17.4873 11.001 17.4873C10.174 17.4873 9.501 18.1603 9.501 18.9873C9.501 19.8143 10.174 20.4873 11.001 20.4873C11.653 20.4873 12.209 20.0693 12.415 19.4873H16.001C17.379 19.4873 18.501 18.3653 18.501 16.9873V12.9873C18.501 11.8963 18.287 11.1223 17.828 10.5523L17.827 10.5533ZM11 19.4883C10.8674 19.4883 10.7402 19.4356 10.6464 19.3418C10.5527 19.2481 10.5 19.1209 10.5 18.9883C10.5 18.8557 10.5527 18.7285 10.6464 18.6347C10.7402 18.541 10.8674 18.4883 11 18.4883C11.1326 18.4883 11.2598 18.541 11.3536 18.6347C11.4473 18.7285 11.5 18.8557 11.5 18.9883C11.5 19.1209 11.4473 19.2481 11.3536 19.3418C11.2598 19.4356 11.1326 19.4883 11 19.4883ZM14 16.4883C13.8674 16.4883 13.7402 16.4356 13.6464 16.3418C13.5527 16.2481 13.5 16.1209 13.5 15.9883V9.98828C13.5 9.85567 13.5527 9.7285 13.6464 9.63473C13.7402 9.54096 13.8674 9.48828 14 9.48828C14.1326 9.48828 14.2598 9.54096 14.3536 9.63473C14.4473 9.7285 14.5 9.85567 14.5 9.98828V15.9883C14.5 16.1209 14.4473 16.2481 14.3536 16.3418C14.2598 16.4356 14.1326 16.4883 14 16.4883ZM15.5 15.4673V10.5093C17.15 10.6573 17.5 11.5773 17.5 12.9883C17.5 14.3993 17.15 15.3193 15.5 15.4673Z" fill="white"/>
</g>
</g>
<defs>
<clipPath id="clip0_1371_16308">
<rect width="20" height="20" fill="white" transform="translate(0.5 0.488281)"/>
</clipPath>
<clipPath id="clip1_1371_16308">
<rect width="20" height="20" fill="white" transform="translate(0.5 0.488281)"/>
</clipPath>
</defs>
</svg>
