<svg width="21" height="21" viewBox="0 0 21 21" fill="none" xmlns="http://www.w3.org/2000/svg">
<g clip-path="url(#clip0_861_8071)">
<g clip-path="url(#clip1_861_8071)">
<path d="M17.2514 20.5013C16.6534 20.5029 16.0791 20.2673 15.6544 19.8463L15.6524 19.8443L7.94244 12.1353C6.92474 12.5168 5.8169 12.5885 4.75849 12.3415C3.70009 12.0945 2.73846 11.5397 1.99477 10.7472C1.25107 9.95461 0.758572 8.95968 0.579315 7.88771C0.400058 6.81575 0.542064 5.71471 0.98744 4.72331C1.02072 4.64961 1.07138 4.58508 1.13508 4.53526C1.19877 4.48544 1.2736 4.45181 1.35315 4.43726C1.43269 4.42271 1.51458 4.42767 1.59179 4.45171C1.669 4.47576 1.73922 4.51817 1.79644 4.57531L4.70844 7.48731H6.50144V5.69431L3.58244 2.77531C3.52485 2.7183 3.48203 2.64811 3.45771 2.57081C3.4334 2.49351 3.42831 2.41145 3.44289 2.33174C3.45747 2.25203 3.49128 2.17708 3.54139 2.1134C3.5915 2.04972 3.6564 1.99923 3.73044 1.96631C4.44599 1.64966 5.21996 1.48649 6.00244 1.48731C9.03544 1.48731 11.5024 3.95431 11.5024 6.98731C11.5024 7.65031 11.3824 8.29931 11.1454 8.92331L18.8494 16.6273C19.2794 17.0523 19.5174 17.6193 19.5204 18.2233C19.5234 18.8273 19.2894 19.3963 18.8644 19.8273C18.6541 20.0414 18.403 20.2112 18.126 20.3268C17.8489 20.4424 17.5516 20.5014 17.2514 20.5003V20.5013ZM16.3574 19.1363C16.5964 19.3723 16.9144 19.5023 17.2514 19.5023C17.5934 19.5023 17.9134 19.3693 18.1524 19.1263C18.3884 18.8884 18.5202 18.5665 18.5189 18.2314C18.5176 17.8963 18.3832 17.5754 18.1454 17.3393L18.1434 17.3373L10.2014 9.39531C10.1295 9.32342 10.0812 9.2313 10.063 9.13124C10.0447 9.03118 10.0575 8.92795 10.0994 8.83531C10.3627 8.25505 10.4997 7.62549 10.5014 6.98831C10.5014 4.50731 8.48244 2.48831 6.00144 2.48831C5.60944 2.48831 5.22144 2.53731 4.85144 2.63131L7.35544 5.13531C7.40184 5.18183 7.43862 5.23704 7.46367 5.29778C7.48872 5.35852 7.50156 5.4236 7.50144 5.48931V7.98931C7.50144 8.05497 7.48851 8.11999 7.46338 8.18065C7.43825 8.24131 7.40142 8.29643 7.35499 8.34286C7.30856 8.38929 7.25345 8.42612 7.19278 8.45125C7.13212 8.47638 7.0671 8.48931 7.00144 8.48931H4.50144C4.43574 8.48943 4.37065 8.47659 4.30991 8.45154C4.24917 8.42649 4.19396 8.38971 4.14744 8.34331L1.64744 5.84331C1.4324 6.66555 1.45434 7.53184 1.71072 8.34214C1.9671 9.15244 2.44746 9.87369 3.09633 10.4226C3.7452 10.9715 4.5361 11.3256 5.37769 11.4441C6.21928 11.5627 7.07723 11.4407 7.85244 11.0923C7.94508 11.0503 8.04832 11.0376 8.14837 11.0558C8.24843 11.0741 8.34055 11.1224 8.41244 11.1943L16.3564 19.1373L16.3574 19.1363Z" fill="white"/>
</g>
</g>
<defs>
<clipPath id="clip0_861_8071">
<rect width="20" height="20" fill="white" transform="translate(0.5 0.488281)"/>
</clipPath>
<clipPath id="clip1_861_8071">
<rect width="20" height="20" fill="white" transform="translate(0.5 0.488281)"/>
</clipPath>
</defs>
</svg>
