<svg width="21" height="21" viewBox="0 0 21 21" fill="none" xmlns="http://www.w3.org/2000/svg">
<g clip-path="url(#clip0_1371_16319)">
<g clip-path="url(#clip1_1371_16319)">
<path d="M20.022 1.05232L19.936 0.96632C19.653 0.68332 19.277 0.52832 18.875 0.52832C18.473 0.52832 18.097 0.68432 17.814 0.96632L12.5 6.28032L12.354 6.13432C12.2602 6.04058 12.1331 5.98793 12.0005 5.98793C11.8679 5.98793 11.7408 6.04058 11.647 6.13432L10.5 7.28132C9.97857 6.78412 9.28447 6.50877 8.564 6.51332C7.95172 6.50914 7.35568 6.71017 6.871 7.08432C6.84 7.10932 3.722 9.55332 0.842 10.5133C0.742478 10.5465 0.655902 10.6101 0.594525 10.6951C0.533148 10.7802 0.50008 10.8824 0.5 10.9873C0.5 13.5253 1.488 15.9103 3.282 17.7043C5.076 19.4983 7.462 20.4863 9.999 20.4863C10.1039 20.4862 10.2061 20.4532 10.2912 20.3918C10.3762 20.3304 10.4399 20.2438 10.473 20.1443C11.433 17.2643 13.877 14.1473 13.902 14.1153C14.732 13.0643 14.642 11.4423 13.705 10.4863L14.852 9.33932C14.9457 9.24556 14.9984 9.1184 14.9984 8.98582C14.9984 8.85324 14.9457 8.72608 14.852 8.63232L14.706 8.48632L20.02 3.17232C20.3012 2.89103 20.4592 2.50957 20.4592 2.11182C20.4592 1.71407 20.3012 1.33261 20.02 1.05132L20.022 1.05232ZM8.564 7.51332C9.044 7.51332 9.498 7.69232 9.811 8.00532L10.147 8.34132L12.983 11.1773C13.579 11.7733 13.641 12.8363 13.119 13.4983C13.104 13.5173 13.041 13.5973 12.942 13.7283L7.263 8.04432C7.393 7.94632 7.471 7.88432 7.49 7.87032C7.781 7.64032 8.162 7.51432 8.563 7.51432L8.564 7.51332ZM9.649 19.4813C8.91946 19.4512 8.19684 19.3272 7.499 19.1123C8.466 17.2423 10.336 15.3613 10.355 15.3423C10.4461 15.248 10.4965 15.1217 10.4953 14.9906C10.4942 14.8595 10.4416 14.7341 10.3489 14.6414C10.2562 14.5487 10.1308 14.4961 9.9997 14.495C9.8686 14.4938 9.7423 14.5442 9.648 14.6353C9.564 14.7193 7.583 16.7123 6.557 18.7593C5.75508 18.4024 5.01328 17.9234 4.358 17.3393L7.355 14.3423C7.44608 14.248 7.49648 14.1217 7.49534 13.9906C7.4942 13.8595 7.44161 13.7341 7.34891 13.6414C7.25621 13.5487 7.1308 13.4961 6.9997 13.495C6.8686 13.4938 6.7423 13.5442 6.648 13.6353L3.651 16.6323C3.06696 15.977 2.58795 15.2352 2.231 14.4333C4.278 13.4083 6.271 11.4263 6.355 11.3423C6.44608 11.248 6.49648 11.1217 6.49534 10.9906C6.4942 10.8595 6.44161 10.7341 6.34891 10.6414C6.25621 10.5487 6.1308 10.4961 5.9997 10.495C5.8686 10.4938 5.7423 10.5442 5.648 10.6353C5.629 10.6543 3.751 12.5223 1.878 13.4913C1.66317 12.7935 1.53915 12.0709 1.509 11.3413C3.414 10.6413 5.312 9.43132 6.445 8.64032L12.349 14.5503C11.558 15.6833 10.349 17.5803 9.65 19.4833L9.649 19.4813ZM13.001 9.78132L11.208 7.98832L12.001 7.19532L13.794 8.98832L13.001 9.78132ZM19.315 2.46732L14.001 7.78132L13.208 6.98832L18.522 1.67432C18.616 1.58032 18.741 1.52932 18.876 1.52932C19.011 1.52932 19.136 1.58132 19.23 1.67432L19.316 1.76032C19.4097 1.85408 19.4624 1.98124 19.4624 2.11382C19.4624 2.2464 19.4097 2.37356 19.316 2.46732H19.315Z" fill="white"/>
</g>
</g>
<defs>
<clipPath id="clip0_1371_16319">
<rect width="20" height="20" fill="white" transform="translate(0.5 0.488281)"/>
</clipPath>
<clipPath id="clip1_1371_16319">
<rect width="20" height="20" fill="white" transform="translate(0.5 0.488281)"/>
</clipPath>
</defs>
</svg>
