<svg width="21" height="21" viewBox="0 0 21 21" fill="none" xmlns="http://www.w3.org/2000/svg">
<path fill-rule="evenodd" clip-rule="evenodd" d="M4.25 5.28027C4.25 3.55438 5.64911 2.15527 7.375 2.15527H8C8.34517 2.15527 8.625 2.4351 8.625 2.78027V18.1969C8.625 18.5421 8.34517 18.8219 8 18.8219C7.65482 18.8219 7.375 18.5421 7.375 18.1969V12.7803H6.125C5.08947 12.7803 4.25 11.9408 4.25 10.9053V5.28027ZM7.375 3.40527C6.33947 3.40527 5.5 4.24474 5.5 5.28027V10.9053C5.5 11.2504 5.77982 11.5303 6.125 11.5303H7.375V3.40527Z" fill="white"/>
<path d="M11.75 2.78027C11.75 2.4351 11.4702 2.15527 11.125 2.15527C10.7798 2.15527 10.5 2.4351 10.5 2.78027V6.94694C10.5 8.45879 11.5736 9.71986 13 10.0094V18.1969C13 18.5421 13.2798 18.8219 13.625 18.8219C13.9702 18.8219 14.25 18.5421 14.25 18.1969V10.0094C15.6764 9.71986 16.75 8.45879 16.75 6.94694V2.78027C16.75 2.4351 16.4702 2.15527 16.125 2.15527C15.7798 2.15527 15.5 2.4351 15.5 2.78027V6.94694C15.5 7.98247 14.6605 8.82194 13.625 8.82194C12.5895 8.82194 11.75 7.98247 11.75 6.94694V2.78027Z" fill="white"/>
<path d="M13.625 2.15527C13.9702 2.15527 14.25 2.4351 14.25 2.78027V6.94694C14.25 7.29212 13.9702 7.57194 13.625 7.57194C13.2798 7.57194 13 7.29212 13 6.94694V2.78027C13 2.4351 13.2798 2.15527 13.625 2.15527Z" fill="white"/>
</svg>
