<svg width="21" height="21" viewBox="0 0 21 21" fill="none" xmlns="http://www.w3.org/2000/svg">
<g clip-path="url(#clip0_1371_16359)">
<g clip-path="url(#clip1_1371_16359)">
<path d="M19.0012 20.4883H2.00123C1.80432 20.4898 1.60926 20.4503 1.42851 20.3721C1.24775 20.294 1.08527 20.1791 0.951451 20.0346C0.817631 19.8902 0.715411 19.7194 0.65132 19.5332C0.58723 19.347 0.562677 19.1495 0.579232 18.9533L1.42523 7.95028C1.43482 7.82454 1.49156 7.70706 1.5841 7.62139C1.67663 7.53571 1.79812 7.48817 1.92423 7.48828H4.00123C4.12308 7.48832 4.24072 7.53284 4.33205 7.61349C4.42338 7.69415 4.48212 7.80538 4.49723 7.92628L5.40223 15.1643L9.74423 12.5593C9.82014 12.5136 9.90684 12.4888 9.99544 12.4876C10.0841 12.4864 10.1714 12.5088 10.2485 12.5524C10.3256 12.5961 10.3898 12.6594 10.4343 12.736C10.4789 12.8126 10.5024 12.8997 10.5022 12.9883V15.1053L14.7452 12.5593C14.8211 12.5136 14.9078 12.4888 14.9964 12.4876C15.0851 12.4864 15.1724 12.5088 15.2495 12.5524C15.3266 12.5961 15.3908 12.6594 15.4353 12.736C15.4799 12.8126 15.5034 12.8997 15.5032 12.9883V15.1053L19.7462 12.5593C19.8221 12.5136 19.9088 12.4888 19.9974 12.4876C20.0861 12.4864 20.1734 12.5088 20.2505 12.5524C20.3276 12.5961 20.3918 12.6594 20.4363 12.736C20.4809 12.8126 20.5044 12.8997 20.5042 12.9883V18.9883C20.5042 19.8153 19.8312 20.4883 19.0042 20.4883H19.0012ZM2.38723 8.48828L1.57623 19.0293C1.56623 19.1543 1.60523 19.2703 1.68423 19.3553C1.76323 19.4403 1.87623 19.4883 2.00123 19.4883H19.0012C19.1338 19.4883 19.261 19.4356 19.3548 19.3418C19.4486 19.2481 19.5012 19.1209 19.5012 18.9883V13.8713L15.2582 16.4173C15.1823 16.463 15.0956 16.4877 15.007 16.4889C14.9184 16.4901 14.8311 16.4678 14.754 16.4241C14.6768 16.3805 14.6127 16.3171 14.5681 16.2405C14.5235 16.164 14.5001 16.0769 14.5002 15.9883V13.8713L10.2572 16.4173C10.1813 16.463 10.0946 16.4877 10.006 16.4889C9.91741 16.4901 9.83008 16.4678 9.75296 16.4241C9.67584 16.3805 9.6117 16.3171 9.56712 16.2405C9.52254 16.164 9.49911 16.0769 9.49923 15.9883V13.8713L5.25623 16.4173C5.18487 16.46 5.10397 16.4843 5.02087 16.4878C4.93777 16.4914 4.85509 16.4742 4.78032 16.4378C4.70555 16.4013 4.64105 16.3468 4.59266 16.2791C4.54428 16.2115 4.51354 16.1328 4.50323 16.0503L3.55823 8.48828H2.38523H2.38723ZM3.00123 6.48828C2.86862 6.48828 2.74145 6.4356 2.64768 6.34183C2.55391 6.24807 2.50123 6.12089 2.50123 5.98828C2.50123 2.95528 4.96823 0.488281 8.00123 0.488281C9.20223 0.488281 10.3442 0.868281 11.3022 1.58828C11.3562 1.62719 11.4018 1.67646 11.4364 1.73322C11.4711 1.78998 11.4941 1.85308 11.5041 1.91882C11.514 1.98457 11.5108 2.05165 11.4945 2.11613C11.4782 2.18061 11.4493 2.24119 11.4093 2.29434C11.3693 2.34748 11.3191 2.39212 11.2617 2.42563C11.2043 2.45915 11.1407 2.48087 11.0748 2.48952C11.0088 2.49818 10.9418 2.49359 10.8777 2.47604C10.8136 2.45848 10.7536 2.42831 10.7012 2.38728C9.92367 1.80047 8.97537 1.48437 8.00123 1.48728C6.80816 1.4886 5.66434 1.96314 4.82071 2.80676C3.97709 3.65039 3.50256 4.79421 3.50123 5.98728C3.50123 6.11989 3.44855 6.24707 3.35478 6.34083C3.26102 6.4346 3.13384 6.48828 3.00123 6.48828ZM16.0012 5.48828C14.8103 5.49214 13.6508 5.10578 12.7002 4.38828C12.6463 4.34937 12.6007 4.3001 12.566 4.24334C12.5314 4.18659 12.5084 4.12349 12.4984 4.05774C12.4884 3.99199 12.4917 3.92491 12.508 3.86043C12.5242 3.79595 12.5532 3.73537 12.5932 3.68223C12.6332 3.62908 12.6833 3.58444 12.7408 3.55093C12.7982 3.51741 12.8617 3.49569 12.9277 3.48704C12.9936 3.47838 13.0606 3.48297 13.1248 3.50052C13.1889 3.51808 13.2489 3.54825 13.3012 3.58928C14.0842 4.17828 15.0182 4.48928 16.0012 4.48928C16.698 4.49166 17.3856 4.33113 18.0093 4.02051C18.6329 3.70989 19.1754 3.25779 19.5932 2.70028C19.6319 2.6454 19.6811 2.59886 19.7381 2.56343C19.7951 2.52801 19.8587 2.50441 19.925 2.49406C19.9913 2.48371 20.059 2.48681 20.1241 2.50318C20.1891 2.51954 20.2503 2.54885 20.3038 2.58934C20.3573 2.62983 20.4021 2.68068 20.4356 2.73885C20.469 2.79703 20.4904 2.86135 20.4985 2.92797C20.5065 2.99459 20.5011 3.06215 20.4825 3.12663C20.4639 3.19111 20.4325 3.25119 20.3902 3.30328C19.8856 3.96968 19.2367 4.51326 18.4922 4.89328C17.7211 5.28703 16.8671 5.49101 16.0012 5.48828Z" fill="white"/>
</g>
</g>
<defs>
<clipPath id="clip0_1371_16359">
<rect width="20" height="20" fill="white" transform="translate(0.5 0.488281)"/>
</clipPath>
<clipPath id="clip1_1371_16359">
<rect width="20" height="20" fill="white" transform="translate(0.5 0.488281)"/>
</clipPath>
</defs>
</svg>
