<svg width="21" height="21" viewBox="0 0 21 21" fill="none" xmlns="http://www.w3.org/2000/svg">
<g clip-path="url(#clip0_1371_16339)">
<g clip-path="url(#clip1_1371_16339)">
<path d="M9.5 10.4883H10.5V11.4883H9.5V10.4883ZM11.5 10.4883H12.5V11.4883H11.5V10.4883ZM13.5 10.4883H14.5V11.4883H13.5V10.4883ZM15.5 10.4883H16.5V11.4883H15.5V10.4883ZM9.5 13.4883H10.5V14.4883H9.5V13.4883ZM11.5 13.4883H12.5V14.4883H11.5V13.4883ZM13.5 13.4883H14.5V14.4883H13.5V13.4883ZM15.5 13.4883H16.5V14.4883H15.5V13.4883ZM9.5 16.4883H10.5V17.4883H9.5V16.4883ZM11.5 16.4883H12.5V17.4883H11.5V16.4883ZM13.5 16.4883H14.5V17.4883H13.5V16.4883ZM15.5 16.4883H16.5V17.4883H15.5V16.4883Z" fill="white"/>
<path d="M18 7.4883H17.5V4.9883C17.5001 4.9226 17.4873 4.85752 17.4622 4.79677C17.4372 4.73603 17.4004 4.68082 17.354 4.6343L15.5 2.7803V0.987305C15.5 0.854696 15.4473 0.727519 15.3536 0.633751C15.2598 0.539983 15.1326 0.487305 15 0.487305C14.8674 0.487305 14.7402 0.539983 14.6464 0.633751C14.5527 0.727519 14.5 0.854696 14.5 0.987305V2.7803L12.646 4.6343C12.5996 4.68082 12.5628 4.73603 12.5378 4.79677C12.5127 4.85752 12.4999 4.9226 12.5 4.9883V5.4883H10.5V2.9883C10.5 2.8557 10.4473 2.72852 10.3536 2.63475C10.2598 2.54098 10.1326 2.4883 10 2.4883H2C1.86739 2.4883 1.74021 2.54098 1.64645 2.63475C1.55268 2.72852 1.5 2.8557 1.5 2.9883V19.9883C1.5 20.1209 1.55268 20.2481 1.64645 20.3419C1.74021 20.4356 1.86739 20.4883 2 20.4883H18C18.1326 20.4883 18.2598 20.4356 18.3536 20.3419C18.4473 20.2481 18.5 20.1209 18.5 19.9883V7.9883C18.5 7.8557 18.4473 7.72852 18.3536 7.63475C18.2598 7.54098 18.1326 7.4883 18 7.4883ZM13.5 5.1953L15 3.6953L16.5 5.1953V7.4883H15.5V5.9883C15.5 5.8557 15.4473 5.72852 15.3536 5.63475C15.2598 5.54098 15.1326 5.4883 15 5.4883H13.5V5.1953ZM14.5 6.4883V7.4883H10.5V6.4883H14.5ZM7.5 7.9883V19.4883H2.5V3.4883H9.5V7.4883H8C7.86739 7.4883 7.74021 7.54098 7.64645 7.63475C7.55268 7.72852 7.5 7.8557 7.5 7.9883ZM17.5 19.4883H8.5V8.48831H17.5V19.4883Z" fill="white"/>
<path d="M7.5 4.48828H8.5V6.48828H7.5V4.48828ZM5.5 4.48828H6.5V6.48828H5.5V4.48828ZM3.5 4.48828H4.5V6.48828H3.5V4.48828ZM3.5 7.48828H4.5V9.48828H3.5V7.48828ZM5.5 7.48828H6.5V9.48828H5.5V7.48828ZM3.5 10.4883H4.5V12.4883H3.5V10.4883ZM5.5 10.4883H6.5V12.4883H5.5V10.4883ZM3.5 13.4883H4.5V15.4883H3.5V13.4883ZM5.5 13.4883H6.5V15.4883H5.5V13.4883ZM3.5 16.4883H4.5V18.4883H3.5V16.4883ZM5.5 16.4883H6.5V18.4883H5.5V16.4883Z" fill="white"/>
</g>
</g>
<defs>
<clipPath id="clip0_1371_16339">
<rect width="20" height="20" fill="white" transform="translate(0.5 0.488281)"/>
</clipPath>
<clipPath id="clip1_1371_16339">
<rect width="20" height="20" fill="white" transform="translate(0.5 0.488281)"/>
</clipPath>
</defs>
</svg>
