<svg width="15" height="17" viewBox="0 0 15 17" fill="none" xmlns="http://www.w3.org/2000/svg">
<path fill-rule="evenodd" clip-rule="evenodd" d="M6.6938 16.2086C6.92676 16.3251 7.1786 16.388 7.43204 16.3974C7.4538 16.3998 7.47596 16.401 7.49844 16.401C7.52076 16.401 7.54284 16.3998 7.56452 16.3974C7.81828 16.3881 8.07052 16.3253 8.30372 16.2086L13.8697 13.4257C14.4796 13.1208 14.8648 12.4975 14.8648 11.8157V5.26455C14.8648 4.58275 14.4796 3.95947 13.8697 3.65457L8.30372 0.871661C7.797 0.618301 7.2006 0.618301 6.6938 0.871661L1.12784 3.65457C0.51802 3.95947 0.132812 4.58275 0.132812 5.26455V11.8157C0.132812 12.4975 0.518028 13.1208 1.12784 13.4257L6.6938 16.2086ZM7.76708 1.94498C7.5982 1.86053 7.3994 1.86053 7.23044 1.94498L2.07512 4.52258L4.11575 5.54287L9.5394 2.83112L7.76708 1.94498ZM10.8811 3.50193L5.45742 6.21368L7.23044 7.10021C7.3994 7.18461 7.5982 7.18461 7.76708 7.10021L12.9224 4.52258L10.8811 3.50193ZM1.33281 11.8157V5.49308L3.51406 6.58365V10.1617C3.51406 10.493 3.78269 10.7617 4.11406 10.7617C4.44543 10.7617 4.71406 10.493 4.71406 10.1617V7.18365L6.6938 8.17349C6.7606 8.20693 6.82892 8.23589 6.89844 8.26045V14.9693L1.66449 12.3524C1.46121 12.2508 1.33281 12.043 1.33281 11.8157ZM8.09844 14.9697V8.26069C8.1682 8.23605 8.23676 8.20701 8.30372 8.17349L13.6648 5.49308V11.8157C13.6648 12.043 13.5364 12.2508 13.3331 12.3524L8.09844 14.9697Z" fill="white"/>
</svg>
